<?xml version="1.0" standalone="no"?>
<!DOCTYPE svg PUBLIC "-//W3C//DTD SVG 20010904//EN"
 "http://www.w3.org/TR/2001/REC-SVG-20010904/DTD/svg10.dtd">
<svg version="1.0" xmlns="http://www.w3.org/2000/svg"
 width="512.000000pt" height="512.000000pt" viewBox="0 0 512.000000 512.000000"
 preserveAspectRatio="xMidYMid meet">
<metadata>
Created by potrace 1.14, written by Peter Selinger 2001-2017
</metadata>
<g transform="translate(0.000000,512.000000) scale(0.100000,-0.100000)"
fill="#000000" stroke="none">
<path d="M290 4887 c-25 -13 -50 -37 -61 -57 -18 -34 -19 -110 -19 -2272 0
-2140 1 -2239 18 -2268 10 -16 31 -40 47 -52 l30 -23 2230 -3 c1515 -2 2241 0
2266 7 46 14 75 40 94 84 13 32 15 301 15 2259 0 2207 0 2222 -20 2262 -11 23
-33 50 -48 61 -27 20 -45 20 -2268 23 l-2241 2 -43 -23z m4337 -198 c30 -14
50 -33 63 -60 20 -38 20 -69 20 -2064 0 -1756 -2 -2030 -15 -2061 -17 -42 -31
-56 -73 -78 -29 -15 -197 -16 -2074 -14 l-2043 3 -30 23 c-17 13 -38 38 -47
55 -16 30 -17 167 -17 2067 0 1941 1 2037 18 2069 10 18 35 44 57 57 l39 24
2029 0 2030 0 43 -21z"/>
<path d="M526 4594 c-14 -14 -16 -212 -16 -2034 0 -1822 2 -2020 16 -2034 14
-14 212 -16 2032 -16 1254 0 2023 4 2032 10 13 8 15 247 18 2034 2 1833 1
2026 -14 2040 -14 14 -208 16 -2034 16 -1822 0 -2020 -2 -2034 -16z m234 -134
c12 -7 16 -37 18 -134 l4 -124 -27 -18 c-22 -14 -30 -15 -50 -4 -20 11 -25 22
-27 69 -5 98 6 201 22 211 19 12 41 12 60 0z m2853 -434 c26 -6 32 -19 27 -56
-4 -34 -26 -37 -347 -37 l-318 0 0 -133 0 -133 46 -12 c56 -14 138 -65 177
-110 16 -18 42 -59 58 -91 26 -52 29 -70 29 -154 0 -78 -4 -104 -23 -144 -47
-103 -137 -182 -239 -212 l-53 -15 0 -108 0 -108 220 -107 c238 -115 263 -134
225 -176 -10 -11 -26 -20 -36 -20 -10 0 -105 43 -210 95 -105 52 -193 95 -195
95 -2 0 -4 -155 -4 -344 l0 -344 230 -233 c204 -207 230 -237 225 -259 -8 -29
-21 -40 -51 -40 -13 0 -93 73 -238 221 l-218 221 -219 -221 c-168 -170 -224
-221 -243 -221 -26 0 -46 25 -46 55 0 9 103 121 229 248 l229 232 1 342 0 342
-22 -8 c-12 -5 -102 -48 -199 -95 -98 -47 -186 -86 -197 -86 -22 0 -41 27 -41
60 0 18 37 39 230 132 l229 112 0 108 0 107 -42 12 c-46 12 -115 49 -154 83
-99 84 -146 254 -107 383 37 123 179 250 289 257 6 1 10 53 10 135 l0 134
-545 1 c-537 1 -545 1 -565 -20 -37 -37 -109 -118 -265 -294 -85 -96 -165
-186 -176 -199 l-22 -23 0 -1184 -1 -1184 1500 0 c1625 0 1529 3 1529 -52 0
-13 -5 -29 -12 -36 -17 -17 -3479 -17 -3496 0 -19 19 -15 66 7 78 12 6 93 10
195 10 l176 0 0 33 c1 39 1 2860 0 2867 0 3 -70 4 -156 4 -140 -1 -159 1 -175
17 -22 22 -13 58 18 74 22 11 2691 13 2736 1z m-2849 -12 c14 -13 16 -61 16
-368 0 -325 -1 -354 -18 -369 -20 -18 -43 -17 -66 2 -14 12 -16 55 -16 367 0
307 2 355 16 368 8 9 24 16 34 16 10 0 26 -7 34 -16z"/>
<path d="M1313 3932 c-22 -3 -22 -5 -22 -194 l0 -191 28 32 c40 45 76 85 166
186 44 49 95 106 112 125 18 19 33 37 33 40 0 5 -281 7 -317 2z"/>
<path d="M2838 3557 c-62 -20 -121 -69 -153 -128 -26 -47 -30 -64 -30 -129 0
-84 17 -128 69 -184 125 -134 349 -105 433 57 35 67 39 180 8 242 -25 51 -80
106 -130 129 -48 23 -148 30 -197 13z"/>
</g>
</svg>
